<svg width="24" height="24" viewBox="0 0 24 24" fill="none" xmlns="http://www.w3.org/2000/svg">
<path d="M20.3904 16.8569C20.3503 16.6092 20.1951 16.3975 19.9625 16.2718L16.5221 14.2447L16.4938 14.2289C16.3495 14.1567 16.1902 14.1197 16.0289 14.1209C15.7407 14.1209 15.4654 14.2301 15.2743 14.4216L14.2589 15.4375C14.2155 15.4788 14.0739 15.5386 14.0309 15.5407C14.0191 15.5398 12.8494 15.4555 10.6959 13.3018C8.54618 11.1526 8.45498 9.97922 8.45426 9.97922C8.45546 9.91922 8.5145 9.7781 8.5565 9.73442L9.42242 8.86874C9.72746 8.56298 9.8189 8.0561 9.63794 7.66346L7.72562 4.06514C7.58666 3.77906 7.31666 3.60242 7.01714 3.60242C6.80522 3.60242 6.60074 3.69026 6.4409 3.84986L4.0805 6.20498C3.85418 6.4301 3.6593 6.8237 3.61682 7.1405C3.59618 7.29194 3.17738 10.9068 8.13338 15.8635C12.3408 20.0705 15.6216 20.3974 16.5276 20.3974C16.6379 20.3988 16.7483 20.3931 16.8579 20.3803C17.1737 20.3381 17.5668 20.1437 17.7917 19.9183L20.1502 17.5601C20.3427 17.3667 20.4305 17.1111 20.3904 16.8569Z" fill="#393939"/>
</svg>
